<svg width="1920" height="831" viewBox="0 0 1920 831" fill="none" xmlns="http://www.w3.org/2000/svg">
<g filter="url(#filter0_df_4_110)">
<path d="M92.1116 344.271C4.12604 246.946 -99.9772 244.511 -184.459 272.384C-272.881 301.558 -311 397.63 -311 490.74V726.002C-311 904.942 -165.941 1050 12.9996 1050H1969.09C2136.18 1050 2276.59 922.95 2286.73 756.165C2300.4 530.967 2303.5 310.217 2263.83 344.271C2190.99 406.791 2089.71 433.8 1940.04 344.271C1790.37 254.741 1720.02 260.743 1616.25 344.271C1512.48 427.798 1423.18 439.802 1283.98 344.271C1144.79 248.739 1092.91 518.828 916.295 344.271C775.007 204.625 590.347 286.085 515.678 344.271C434.025 410.126 234.997 502.323 92.1116 344.271Z" fill="#C1B9DF"/>
</g>
<path d="M93 372.002C4.82535 274.715 -99.5007 272.275 -184.166 300.135C-272.746 329.282 -311 425.464 -311 518.716V753.502C-311 932.443 -165.94 1077.5 13 1077.5H1974.84C2141.9 1077.5 2282.3 950.494 2292.45 783.739C2306.16 558.623 2309.26 337.961 2269.5 372.002C2196.5 434.502 2095 461.502 1945 372.002C1795 282.502 1724.5 288.502 1620.5 372.002C1516.5 455.502 1427 467.502 1287.5 372.002C1148 276.502 1096 546.502 919 372.002C777.4 232.402 592.333 313.836 517.5 372.002C435.667 437.836 236.2 530.002 93 372.002Z" fill="#6A56B3"/>
<g filter="url(#filter1_f_4_110)">
<path d="M257 470C288.333 470 295.11 473.029 319 470M257 470H319M257 470C246.908 470 218.755 464.462 193 455.5C171.699 448.088 153.196 435.027 145.5 430.5C135.059 424.358 112.036 403.658 91 383C77.7866 370.024 63.7514 358.444 57 351.5C43 337.1 14 323.167 0.5 316.5L-57 299M319 470C335.519 467.905 362.309 464.829 402.5 448C445.513 429.99 476 416.808 504 394C536 367.933 562.89 352.798 575 347.5C623 326.5 678.5 307.5 717.5 307.5L790 313L871 347.5L926 392L968.5 425.5L1011.5 442.5H1058L1100.5 425.5L1148 392L1187.5 371L1216.5 363.5H1231L1258 368L1298 392L1345 419.5L1393 440.5L1446 451.5L1496 448L1541.5 433.5L1577 415L1618 385L1660.5 354L1703 331.5L1733.5 321.5L1765.5 318L1793 321.5L1838.5 331.5L1875 346.5L1932 376.5L1971 399L2003.5 415L2028.5 424.5L2056.5 433L2132 442.5" stroke="black" stroke-opacity="0.5" stroke-width="24"/>
</g>
<g opacity="0.15">
<path d="M0 843.898V818.135C0 816.478 1.34315 815.135 3 815.135H56.1204C57.7772 815.135 59.1204 816.478 59.1204 818.135V701.39C59.1204 699.733 60.4635 698.39 62.1204 698.39H155.955V671.011C155.955 669.899 156.571 668.878 157.554 668.359L172.117 660.668C172.548 660.44 173.029 660.32 173.518 660.32H226.583C227.059 660.32 227.528 660.434 227.952 660.651L243.004 668.367C244.006 668.88 244.636 669.911 244.636 671.036V682.739H302.164C302.864 682.739 303.541 682.983 304.08 683.43L321.02 697.49C321.707 698.06 322.104 698.906 322.104 699.798V740.266H337.394V643.327C337.394 642.317 337.902 641.375 338.746 640.82L375.314 616.777C376.142 616.232 377.186 616.132 378.103 616.509L429.312 637.56C430.436 638.023 431.171 639.119 431.171 640.335V741.112H486.782C488.438 741.112 489.782 742.455 489.782 744.112V685.739C489.782 684.082 491.125 682.739 492.782 682.739H568.327C569.984 682.739 571.327 684.082 571.327 685.739V698.39L627.395 730.098C628.336 730.631 628.918 731.628 628.918 732.71V840.898C628.918 842.555 630.261 843.898 631.918 843.898H633.053C634.71 843.898 636.053 842.555 636.053 840.898V828.373C636.053 827.044 636.927 825.874 638.201 825.496L648.176 822.539C649.45 822.162 650.324 820.992 650.324 819.663V670.993C650.324 669.891 650.929 668.877 651.9 668.353L669.135 659.055C670.105 658.532 670.71 657.518 670.71 656.415V608.86C670.71 607.522 671.596 606.346 672.882 605.977L681.79 603.417C683.076 603.048 683.961 601.872 683.961 600.534V571.512C683.961 569.05 686.762 567.636 688.742 569.097L701.09 578.207C701.857 578.772 702.309 579.668 702.309 580.621V600.413C702.309 601.807 703.269 603.018 704.627 603.335L716.3 606.059C717.658 606.376 718.618 607.587 718.618 608.981V655.205C718.618 656.862 719.961 658.205 721.618 658.205H724.792C726.449 658.205 727.792 659.549 727.792 661.205V727.96C727.792 729.617 729.135 730.96 730.792 730.96H743.649C745.306 730.96 746.649 732.303 746.649 733.96V764.376H830.801C832.458 764.376 833.801 765.719 833.801 767.376V673.038C833.801 672.467 833.964 671.908 834.27 671.427L866.044 621.525C866.595 620.66 867.55 620.136 868.575 620.136H882.78C883.711 620.136 884.59 620.568 885.158 621.306L918.801 665.01C919.204 665.535 919.423 666.178 919.423 666.84V730.96H935.79C937.447 730.96 938.79 729.617 938.79 727.96V623.136C938.79 621.479 940.134 620.136 941.79 620.136H994.911C996.568 620.136 997.911 621.479 997.911 623.136V727.96C997.911 729.617 999.254 730.96 1000.91 730.96H1015.3C1016.95 730.96 1018.3 732.303 1018.3 733.96V697.49C1018.3 696.71 1018.6 695.962 1019.14 695.402L1036.31 677.69C1036.85 677.13 1037.15 676.381 1037.15 675.602V635.503C1037.15 634.863 1037.36 634.24 1037.74 633.724L1064.6 597.242C1064.98 596.727 1065.19 596.103 1065.19 595.463V569.432C1065.19 568.352 1065.77 567.356 1066.7 566.823L1073.35 563.049C1074.29 562.516 1074.87 561.519 1074.87 560.44V539.388C1074.87 536.848 1077.83 535.457 1079.79 537.08L1085 541.406C1085.68 541.976 1086.08 542.822 1086.08 543.715V561.058C1086.08 561.785 1086.35 562.488 1086.83 563.035L1097.57 575.296C1098.05 575.843 1098.31 576.546 1098.31 577.274V598.436C1098.31 599.069 1098.51 599.686 1098.89 600.198L1123.22 633.73C1123.6 634.242 1123.8 634.859 1123.8 635.492V673.817C1123.8 675.474 1125.14 676.817 1126.8 676.817H1133.54C1135.19 676.817 1136.54 678.16 1136.54 679.817V841.393C1136.54 842.844 1137.57 844.088 1139 844.323C1148.81 845.935 1164.57 847.627 1164.57 843.898V697.923C1164.57 696.879 1165.11 695.942 1166 695.397L1185.25 683.604C1185.73 683.315 1186.27 683.162 1186.82 683.162H1220.79C1221.35 683.162 1221.9 683.321 1222.38 683.621L1241.14 695.393C1242.02 695.941 1242.55 696.901 1242.55 697.934V785.103L1276.24 765.243C1277.15 764.706 1278.28 764.689 1279.21 765.199L1315.43 785.103V699.275C1315.43 697.618 1316.77 696.275 1318.43 696.275H1393.41V640.479C1393.41 638.822 1394.75 637.479 1396.41 637.479H1400.6C1402.26 637.479 1403.6 636.136 1403.6 634.479V619.329C1403.6 617.672 1402.26 616.329 1400.6 616.329H1396.41C1394.75 616.329 1393.41 614.986 1393.41 613.329V609.6C1393.41 607.944 1394.75 606.6 1396.41 606.6H1474.5C1476.16 606.6 1477.5 607.944 1477.5 609.6V613.329C1477.5 614.986 1476.16 616.329 1474.5 616.329H1467.76C1466.1 616.329 1464.76 617.672 1464.76 619.329V631.518C1464.76 633.175 1466.1 634.518 1467.76 634.518H1474.5C1476.16 634.518 1477.5 635.861 1477.5 637.518V710.656H1518.84C1520.5 710.656 1521.84 711.999 1521.84 713.656V764.376H1576.94C1578.6 764.376 1579.94 765.719 1579.94 767.376V622.514C1579.94 621.552 1580.4 620.648 1581.18 620.084L1598.52 607.536C1599.33 606.951 1600.38 606.806 1601.32 607.149L1637.7 620.484C1638.56 620.799 1639.23 621.488 1639.52 622.355L1690.89 777.028C1690.99 777.333 1691.05 777.653 1691.05 777.974V840.898C1691.05 842.555 1692.39 843.898 1694.05 843.898H1730.35C1732 843.898 1733.35 842.555 1733.35 840.898V691.584C1733.35 690.334 1734.12 689.216 1735.29 688.776L1759.85 679.547C1760.19 679.42 1760.54 679.355 1760.9 679.355H1813.42C1815.08 679.355 1816.42 680.698 1816.42 682.355V743.65H1875.03V632.865C1875.03 631.208 1876.38 629.865 1878.03 629.865H1939.31C1940.96 629.865 1942.31 631.208 1942.31 632.865V743.65H1958.16C1959.82 743.65 1961.16 744.993 1961.16 746.65V766.875C1961.16 768.532 1962.51 769.875 1964.16 769.875H2026.4L2056.44 786.363C2057.4 786.89 2058 787.898 2058 788.993V843.898V909C2058 910.657 2056.66 912 2055 912H3.00005C1.3432 912 0 910.657 0 909V843.898Z" fill="#503F8D"/>
<path d="M155.955 698.39H62.1204C60.4635 698.39 59.1204 699.733 59.1204 701.39V843.898V818.135C59.1204 816.478 57.7772 815.135 56.1204 815.135H3C1.34315 815.135 0 816.478 0 818.135V843.898V909C0 910.657 1.3432 912 3.00005 912H2055C2056.66 912 2058 910.657 2058 909V843.898V788.993C2058 787.898 2057.4 786.89 2056.44 786.363L2026.4 769.875M155.955 698.39V671.011C155.955 669.899 156.571 668.878 157.554 668.359L172.117 660.668C172.548 660.44 173.029 660.32 173.518 660.32H226.583C227.059 660.32 227.528 660.434 227.952 660.651L243.004 668.367C244.006 668.88 244.636 669.911 244.636 671.036V682.739M155.955 698.39V843.898M244.636 843.898V682.739M244.636 682.739H302.164C302.864 682.739 303.541 682.983 304.08 683.43L321.02 697.49C321.707 698.06 322.104 698.906 322.104 699.798V740.266M322.104 740.266H337.394M322.104 740.266H316.949C315.293 740.266 313.949 741.609 313.949 743.266V843.898M337.394 740.266V643.327C337.394 642.317 337.902 641.375 338.746 640.82L375.314 616.777C376.142 616.232 377.186 616.132 378.103 616.509L429.312 637.56C430.436 638.023 431.171 639.119 431.171 640.335V741.112M337.394 740.266V843.898M431.171 843.898V741.112M431.171 741.112H486.782C488.438 741.112 489.782 742.455 489.782 744.112V843.898V685.739C489.782 684.082 491.125 682.739 492.782 682.739H568.327C569.984 682.739 571.327 684.082 571.327 685.739V698.39M571.327 843.898V698.39M571.327 698.39L627.395 730.098C628.336 730.631 628.918 731.628 628.918 732.71V840.898C628.918 842.555 630.261 843.898 631.918 843.898H633.053C634.71 843.898 636.053 842.555 636.053 840.898V828.373C636.053 827.044 636.927 825.874 638.201 825.496L648.176 822.539C649.45 822.162 650.324 820.992 650.324 819.663V670.993C650.324 669.891 650.929 668.877 651.9 668.353L669.135 659.055C670.105 658.532 670.71 657.518 670.71 656.415V608.86C670.71 607.522 671.596 606.346 672.882 605.977L681.79 603.417C683.076 603.048 683.961 601.872 683.961 600.534V571.512C683.961 569.05 686.762 567.636 688.742 569.097L701.09 578.207C701.857 578.772 702.309 579.668 702.309 580.621V600.413C702.309 601.807 703.269 603.018 704.627 603.335L716.3 606.059C717.658 606.376 718.618 607.587 718.618 608.981V655.205C718.618 656.862 719.961 658.205 721.618 658.205H724.792C726.449 658.205 727.792 659.549 727.792 661.205V727.96C727.792 729.617 729.135 730.96 730.792 730.96H743.649C745.306 730.96 746.649 732.303 746.649 733.96V764.376M746.649 812.597H757.92C759.577 812.597 760.92 813.94 760.92 815.597V843.898M746.649 812.597H669.633C667.976 812.597 666.633 813.94 666.633 815.597V843.898M746.649 812.597V764.376M746.649 764.376H830.801C832.458 764.376 833.801 765.719 833.801 767.376V843.898V673.038C833.801 672.467 833.964 671.908 834.27 671.427L866.044 621.525C866.595 620.66 867.55 620.136 868.575 620.136H882.78C883.711 620.136 884.59 620.568 885.158 621.306L918.801 665.01C919.204 665.535 919.423 666.178 919.423 666.84V730.96M919.423 843.898V730.96M919.423 730.96H935.79C937.447 730.96 938.79 729.617 938.79 727.96V623.136C938.79 621.479 940.134 620.136 941.79 620.136H994.911C996.568 620.136 997.911 621.479 997.911 623.136V727.96C997.911 729.617 999.254 730.96 1000.91 730.96H1015.3C1016.95 730.96 1018.3 732.303 1018.3 733.96V843.898V697.49C1018.3 696.71 1018.6 695.962 1019.14 695.402L1036.31 677.69C1036.85 677.13 1037.15 676.381 1037.15 675.602V635.503C1037.15 634.863 1037.36 634.24 1037.74 633.724L1064.6 597.242C1064.98 596.727 1065.19 596.103 1065.19 595.463V569.432C1065.19 568.352 1065.77 567.356 1066.7 566.823L1073.35 563.049C1074.29 562.516 1074.87 561.519 1074.87 560.44V539.388C1074.87 536.848 1077.83 535.457 1079.79 537.08L1085 541.406C1085.68 541.976 1086.08 542.822 1086.08 543.715V561.058C1086.08 561.785 1086.35 562.488 1086.83 563.035L1097.57 575.296C1098.05 575.843 1098.31 576.546 1098.31 577.274V598.436C1098.31 599.069 1098.51 599.686 1098.89 600.198L1123.22 633.73C1123.6 634.242 1123.8 634.859 1123.8 635.492V673.817C1123.8 675.474 1125.14 676.817 1126.8 676.817H1133.54C1135.19 676.817 1136.54 678.16 1136.54 679.817V841.393C1136.54 842.844 1137.57 844.088 1139 844.323C1148.81 845.935 1164.57 847.627 1164.57 843.898C1164.57 839.884 1164.57 745.975 1164.57 697.923C1164.57 696.879 1165.11 695.942 1166 695.397L1185.25 683.604C1185.73 683.315 1186.27 683.162 1186.82 683.162H1220.79C1221.35 683.162 1221.9 683.321 1222.38 683.621L1241.14 695.393C1242.02 695.941 1242.55 696.901 1242.55 697.934V785.103M1393.41 696.275H1318.43C1316.77 696.275 1315.43 697.618 1315.43 699.275V785.103M1393.41 696.275V640.479C1393.41 638.822 1394.75 637.479 1396.41 637.479H1400.6C1402.26 637.479 1403.6 636.136 1403.6 634.479V619.329C1403.6 617.672 1402.26 616.329 1400.6 616.329H1396.41C1394.75 616.329 1393.41 614.986 1393.41 613.329V609.6C1393.41 607.944 1394.75 606.6 1396.41 606.6H1474.5C1476.16 606.6 1477.5 607.944 1477.5 609.6V613.329C1477.5 614.986 1476.16 616.329 1474.5 616.329H1467.76C1466.1 616.329 1464.76 617.672 1464.76 619.329V631.518C1464.76 633.175 1466.1 634.518 1467.76 634.518H1474.5C1476.16 634.518 1477.5 635.861 1477.5 637.518V710.656M1393.41 696.275V843.898M1477.5 710.656L1462.75 723.294C1462.08 723.864 1461.7 724.696 1461.7 725.572V843.898M1477.5 710.656H1518.84C1520.5 710.656 1521.84 711.999 1521.84 713.656V764.376M1242.55 785.103V840.898C1242.55 842.555 1243.89 843.898 1245.55 843.898H1312.43C1314.08 843.898 1315.43 842.555 1315.43 840.898V785.103M1242.55 785.103L1276.24 765.243C1277.15 764.706 1278.28 764.689 1279.21 765.199L1315.43 785.103M1521.84 843.898V764.376M1521.84 764.376H1576.94C1578.6 764.376 1579.94 765.719 1579.94 767.376V843.898V622.514C1579.94 621.552 1580.4 620.648 1581.18 620.084L1598.52 607.536C1599.33 606.951 1600.38 606.806 1601.32 607.149L1637.7 620.484C1638.56 620.799 1639.23 621.488 1639.52 622.355L1690.89 777.028C1690.99 777.333 1691.05 777.653 1691.05 777.974V840.898C1691.05 842.555 1692.39 843.898 1694.05 843.898H1730.35C1732 843.898 1733.35 842.555 1733.35 840.898V691.584C1733.35 690.334 1734.12 689.216 1735.29 688.776L1759.85 679.547C1760.19 679.42 1760.54 679.355 1760.9 679.355H1813.42C1815.08 679.355 1816.42 680.698 1816.42 682.355V743.65M1816.42 843.898V743.65M1816.42 743.65H1875.03M2026.4 769.875H1964.16C1962.51 769.875 1961.16 768.532 1961.16 766.875V746.65C1961.16 744.993 1959.82 743.65 1958.16 743.65H1942.31M2026.4 769.875V843.898M1875.03 743.65V632.865C1875.03 631.208 1876.38 629.865 1878.03 629.865H1939.31C1940.96 629.865 1942.31 631.208 1942.31 632.865V743.65M1875.03 743.65H1942.31" stroke="#6A56B3" stroke-width="10"/>
</g>
<g opacity="0.15">
<path d="M0 843.898V818.135C0 816.478 1.34315 815.135 3 815.135H56.1204C57.7772 815.135 59.1204 816.478 59.1204 818.135V701.39C59.1204 699.733 60.4635 698.39 62.1204 698.39H155.955V671.011C155.955 669.899 156.571 668.878 157.554 668.359L172.117 660.668C172.548 660.44 173.029 660.32 173.518 660.32H226.583C227.059 660.32 227.528 660.434 227.952 660.651L243.004 668.367C244.006 668.88 244.636 669.911 244.636 671.036V682.739H302.164C302.864 682.739 303.541 682.983 304.08 683.43L321.02 697.49C321.707 698.06 322.104 698.906 322.104 699.798V740.266H337.394V643.327C337.394 642.317 337.902 641.375 338.746 640.82L375.314 616.777C376.142 616.232 377.186 616.132 378.103 616.509L429.312 637.56C430.436 638.023 431.171 639.119 431.171 640.335V741.112H486.782C488.438 741.112 489.782 742.455 489.782 744.112V685.739C489.782 684.082 491.125 682.739 492.782 682.739H568.327C569.984 682.739 571.327 684.082 571.327 685.739V698.39L627.395 730.098C628.336 730.631 628.918 731.628 628.918 732.71V840.898C628.918 842.555 630.261 843.898 631.918 843.898H633.053C634.71 843.898 636.053 842.555 636.053 840.898V828.373C636.053 827.044 636.927 825.874 638.201 825.496L648.176 822.539C649.45 822.162 650.324 820.992 650.324 819.663V670.993C650.324 669.891 650.929 668.877 651.9 668.353L669.135 659.055C670.105 658.532 670.71 657.518 670.71 656.415V608.86C670.71 607.522 671.596 606.346 672.882 605.977L681.79 603.417C683.076 603.048 683.961 601.872 683.961 600.534V571.512C683.961 569.05 686.762 567.636 688.742 569.097L701.09 578.207C701.857 578.772 702.309 579.668 702.309 580.621V600.413C702.309 601.807 703.269 603.018 704.627 603.335L716.3 606.059C717.658 606.376 718.618 607.587 718.618 608.981V655.205C718.618 656.862 719.961 658.205 721.618 658.205H724.792C726.449 658.205 727.792 659.549 727.792 661.205V727.96C727.792 729.617 729.135 730.96 730.792 730.96H743.649C745.306 730.96 746.649 732.303 746.649 733.96V764.376H830.801C832.458 764.376 833.801 765.719 833.801 767.376V673.038C833.801 672.467 833.964 671.908 834.27 671.427L866.044 621.525C866.595 620.66 867.55 620.136 868.575 620.136H882.78C883.711 620.136 884.59 620.568 885.158 621.306L918.801 665.01C919.204 665.535 919.423 666.178 919.423 666.84V730.96H935.79C937.447 730.96 938.79 729.617 938.79 727.96V623.136C938.79 621.479 940.134 620.136 941.79 620.136H994.911C996.568 620.136 997.911 621.479 997.911 623.136V727.96C997.911 729.617 999.254 730.96 1000.91 730.96H1015.3C1016.95 730.96 1018.3 732.303 1018.3 733.96V697.49C1018.3 696.71 1018.6 695.962 1019.14 695.402L1036.31 677.69C1036.85 677.13 1037.15 676.381 1037.15 675.602V635.503C1037.15 634.863 1037.36 634.24 1037.74 633.724L1064.6 597.242C1064.98 596.727 1065.19 596.103 1065.19 595.463V569.432C1065.19 568.352 1065.77 567.356 1066.7 566.823L1073.35 563.049C1074.29 562.516 1074.87 561.519 1074.87 560.44V539.388C1074.87 536.848 1077.83 535.457 1079.79 537.08L1085 541.406C1085.68 541.976 1086.08 542.822 1086.08 543.715V561.058C1086.08 561.785 1086.35 562.488 1086.83 563.035L1097.57 575.296C1098.05 575.843 1098.31 576.546 1098.31 577.274V598.436C1098.31 599.069 1098.51 599.686 1098.89 600.198L1123.22 633.73C1123.6 634.242 1123.8 634.859 1123.8 635.492V673.817C1123.8 675.474 1125.14 676.817 1126.8 676.817H1133.54C1135.19 676.817 1136.54 678.16 1136.54 679.817V841.393C1136.54 842.844 1137.57 844.088 1139 844.323C1148.81 845.935 1164.57 847.627 1164.57 843.898V697.923C1164.57 696.879 1165.11 695.942 1166 695.397L1185.25 683.604C1185.73 683.315 1186.27 683.162 1186.82 683.162H1220.79C1221.35 683.162 1221.9 683.321 1222.38 683.621L1241.14 695.393C1242.02 695.941 1242.55 696.901 1242.55 697.934V785.103L1276.24 765.243C1277.15 764.706 1278.28 764.689 1279.21 765.199L1315.43 785.103V699.275C1315.43 697.618 1316.77 696.275 1318.43 696.275H1393.41V640.479C1393.41 638.822 1394.75 637.479 1396.41 637.479H1400.6C1402.26 637.479 1403.6 636.136 1403.6 634.479V619.329C1403.6 617.672 1402.26 616.329 1400.6 616.329H1396.41C1394.75 616.329 1393.41 614.986 1393.41 613.329V609.6C1393.41 607.944 1394.75 606.6 1396.41 606.6H1474.5C1476.16 606.6 1477.5 607.944 1477.5 609.6V613.329C1477.5 614.986 1476.16 616.329 1474.5 616.329H1467.76C1466.1 616.329 1464.76 617.672 1464.76 619.329V631.518C1464.76 633.175 1466.1 634.518 1467.76 634.518H1474.5C1476.16 634.518 1477.5 635.861 1477.5 637.518V710.656H1518.84C1520.5 710.656 1521.84 711.999 1521.84 713.656V764.376H1576.94C1578.6 764.376 1579.94 765.719 1579.94 767.376V622.514C1579.94 621.552 1580.4 620.648 1581.18 620.084L1598.52 607.536C1599.33 606.951 1600.38 606.806 1601.32 607.149L1637.7 620.484C1638.56 620.799 1639.23 621.488 1639.52 622.355L1690.89 777.028C1690.99 777.333 1691.05 777.653 1691.05 777.974V840.898C1691.05 842.555 1692.39 843.898 1694.05 843.898H1730.35C1732 843.898 1733.35 842.555 1733.35 840.898V691.584C1733.35 690.334 1734.12 689.216 1735.29 688.776L1759.85 679.547C1760.19 679.42 1760.54 679.355 1760.9 679.355H1813.42C1815.08 679.355 1816.42 680.698 1816.42 682.355V743.65H1875.03V632.865C1875.03 631.208 1876.38 629.865 1878.03 629.865H1939.31C1940.96 629.865 1942.31 631.208 1942.31 632.865V743.65H1958.16C1959.82 743.65 1961.16 744.993 1961.16 746.65V766.875C1961.16 768.532 1962.51 769.875 1964.16 769.875H2026.4L2056.44 786.363C2057.4 786.89 2058 787.898 2058 788.993V843.898V909C2058 910.657 2056.66 912 2055 912H3.00005C1.3432 912 0 910.657 0 909V843.898Z" fill="#503F8D"/>
<path d="M155.955 698.39H62.1204C60.4635 698.39 59.1204 699.733 59.1204 701.39V843.898V818.135C59.1204 816.478 57.7772 815.135 56.1204 815.135H3C1.34315 815.135 0 816.478 0 818.135V843.898V909C0 910.657 1.3432 912 3.00005 912H2055C2056.66 912 2058 910.657 2058 909V843.898V788.993C2058 787.898 2057.4 786.89 2056.44 786.363L2026.4 769.875M155.955 698.39V671.011C155.955 669.899 156.571 668.878 157.554 668.359L172.117 660.668C172.548 660.44 173.029 660.32 173.518 660.32H226.583C227.059 660.32 227.528 660.434 227.952 660.651L243.004 668.367C244.006 668.88 244.636 669.911 244.636 671.036V682.739M155.955 698.39V843.898M244.636 843.898V682.739M244.636 682.739H302.164C302.864 682.739 303.541 682.983 304.08 683.43L321.02 697.49C321.707 698.06 322.104 698.906 322.104 699.798V740.266M322.104 740.266H337.394M322.104 740.266H316.949C315.293 740.266 313.949 741.609 313.949 743.266V843.898M337.394 740.266V643.327C337.394 642.317 337.902 641.375 338.746 640.82L375.314 616.777C376.142 616.232 377.186 616.132 378.103 616.509L429.312 637.56C430.436 638.023 431.171 639.119 431.171 640.335V741.112M337.394 740.266V843.898M431.171 843.898V741.112M431.171 741.112H486.782C488.438 741.112 489.782 742.455 489.782 744.112V843.898V685.739C489.782 684.082 491.125 682.739 492.782 682.739H568.327C569.984 682.739 571.327 684.082 571.327 685.739V698.39M571.327 843.898V698.39M571.327 698.39L627.395 730.098C628.336 730.631 628.918 731.628 628.918 732.71V840.898C628.918 842.555 630.261 843.898 631.918 843.898H633.053C634.71 843.898 636.053 842.555 636.053 840.898V828.373C636.053 827.044 636.927 825.874 638.201 825.496L648.176 822.539C649.45 822.162 650.324 820.992 650.324 819.663V670.993C650.324 669.891 650.929 668.877 651.9 668.353L669.135 659.055C670.105 658.532 670.71 657.518 670.71 656.415V608.86C670.71 607.522 671.596 606.346 672.882 605.977L681.79 603.417C683.076 603.048 683.961 601.872 683.961 600.534V571.512C683.961 569.05 686.762 567.636 688.742 569.097L701.09 578.207C701.857 578.772 702.309 579.668 702.309 580.621V600.413C702.309 601.807 703.269 603.018 704.627 603.335L716.3 606.059C717.658 606.376 718.618 607.587 718.618 608.981V655.205C718.618 656.862 719.961 658.205 721.618 658.205H724.792C726.449 658.205 727.792 659.549 727.792 661.205V727.96C727.792 729.617 729.135 730.96 730.792 730.96H743.649C745.306 730.96 746.649 732.303 746.649 733.96V764.376M746.649 812.597H757.92C759.577 812.597 760.92 813.94 760.92 815.597V843.898M746.649 812.597H669.633C667.976 812.597 666.633 813.94 666.633 815.597V843.898M746.649 812.597V764.376M746.649 764.376H830.801C832.458 764.376 833.801 765.719 833.801 767.376V843.898V673.038C833.801 672.467 833.964 671.908 834.27 671.427L866.044 621.525C866.595 620.66 867.55 620.136 868.575 620.136H882.78C883.711 620.136 884.59 620.568 885.158 621.306L918.801 665.01C919.204 665.535 919.423 666.178 919.423 666.84V730.96M919.423 843.898V730.96M919.423 730.96H935.79C937.447 730.96 938.79 729.617 938.79 727.96V623.136C938.79 621.479 940.134 620.136 941.79 620.136H994.911C996.568 620.136 997.911 621.479 997.911 623.136V727.96C997.911 729.617 999.254 730.96 1000.91 730.96H1015.3C1016.95 730.96 1018.3 732.303 1018.3 733.96V843.898V697.49C1018.3 696.71 1018.6 695.962 1019.14 695.402L1036.31 677.69C1036.85 677.13 1037.15 676.381 1037.15 675.602V635.503C1037.15 634.863 1037.36 634.24 1037.74 633.724L1064.6 597.242C1064.98 596.727 1065.19 596.103 1065.19 595.463V569.432C1065.19 568.352 1065.77 567.356 1066.7 566.823L1073.35 563.049C1074.29 562.516 1074.87 561.519 1074.87 560.44V539.388C1074.87 536.848 1077.83 535.457 1079.79 537.08L1085 541.406C1085.68 541.976 1086.08 542.822 1086.08 543.715V561.058C1086.08 561.785 1086.35 562.488 1086.83 563.035L1097.57 575.296C1098.05 575.843 1098.31 576.546 1098.31 577.274V598.436C1098.31 599.069 1098.51 599.686 1098.89 600.198L1123.22 633.73C1123.6 634.242 1123.8 634.859 1123.8 635.492V673.817C1123.8 675.474 1125.14 676.817 1126.8 676.817H1133.54C1135.19 676.817 1136.54 678.16 1136.54 679.817V841.393C1136.54 842.844 1137.57 844.088 1139 844.323C1148.81 845.935 1164.57 847.627 1164.57 843.898C1164.57 839.884 1164.57 745.975 1164.57 697.923C1164.57 696.879 1165.11 695.942 1166 695.397L1185.25 683.604C1185.73 683.315 1186.27 683.162 1186.82 683.162H1220.79C1221.35 683.162 1221.9 683.321 1222.38 683.621L1241.14 695.393C1242.02 695.941 1242.55 696.901 1242.55 697.934V785.103M1393.41 696.275H1318.43C1316.77 696.275 1315.43 697.618 1315.43 699.275V785.103M1393.41 696.275V640.479C1393.41 638.822 1394.75 637.479 1396.41 637.479H1400.6C1402.26 637.479 1403.6 636.136 1403.6 634.479V619.329C1403.6 617.672 1402.26 616.329 1400.6 616.329H1396.41C1394.75 616.329 1393.41 614.986 1393.41 613.329V609.6C1393.41 607.944 1394.75 606.6 1396.41 606.6H1474.5C1476.16 606.6 1477.5 607.944 1477.5 609.6V613.329C1477.5 614.986 1476.16 616.329 1474.5 616.329H1467.76C1466.1 616.329 1464.76 617.672 1464.76 619.329V631.518C1464.76 633.175 1466.1 634.518 1467.76 634.518H1474.5C1476.16 634.518 1477.5 635.861 1477.5 637.518V710.656M1393.41 696.275V843.898M1477.5 710.656L1462.75 723.294C1462.08 723.864 1461.7 724.696 1461.7 725.572V843.898M1477.5 710.656H1518.84C1520.5 710.656 1521.84 711.999 1521.84 713.656V764.376M1242.55 785.103V840.898C1242.55 842.555 1243.89 843.898 1245.55 843.898H1312.43C1314.08 843.898 1315.43 842.555 1315.43 840.898V785.103M1242.55 785.103L1276.24 765.243C1277.15 764.706 1278.28 764.689 1279.21 765.199L1315.43 785.103M1521.84 843.898V764.376M1521.84 764.376H1576.94C1578.6 764.376 1579.94 765.719 1579.94 767.376V843.898V622.514C1579.94 621.552 1580.4 620.648 1581.18 620.084L1598.52 607.536C1599.33 606.951 1600.38 606.806 1601.32 607.149L1637.7 620.484C1638.56 620.799 1639.23 621.488 1639.52 622.355L1690.89 777.028C1690.99 777.333 1691.05 777.653 1691.05 777.974V840.898C1691.05 842.555 1692.39 843.898 1694.05 843.898H1730.35C1732 843.898 1733.35 842.555 1733.35 840.898V691.584C1733.35 690.334 1734.12 689.216 1735.29 688.776L1759.85 679.547C1760.19 679.42 1760.54 679.355 1760.9 679.355H1813.42C1815.08 679.355 1816.42 680.698 1816.42 682.355V743.65M1816.42 843.898V743.65M1816.42 743.65H1875.03M2026.4 769.875H1964.16C1962.51 769.875 1961.16 768.532 1961.16 766.875V746.65C1961.16 744.993 1959.82 743.65 1958.16 743.65H1942.31M2026.4 769.875V843.898M1875.03 743.65V632.865C1875.03 631.208 1876.38 629.865 1878.03 629.865H1939.31C1940.96 629.865 1942.31 631.208 1942.31 632.865V743.65M1875.03 743.65H1942.31" stroke="#6A56B3" stroke-width="10"/>
</g>
<defs>
<filter id="filter0_df_4_110" x="-568" y="0.00219345" width="3121" height="1307" filterUnits="userSpaceOnUse" color-interpolation-filters="sRGB">
<feFlood flood-opacity="0" result="BackgroundImageFix"/>
<feColorMatrix in="SourceAlpha" type="matrix" values="0 0 0 0 0 0 0 0 0 0 0 0 0 0 0 0 0 0 127 0" result="hardAlpha"/>
<feOffset dy="4"/>
<feGaussianBlur stdDeviation="2"/>
<feComposite in2="hardAlpha" operator="out"/>
<feColorMatrix type="matrix" values="0 0 0 0 0 0 0 0 0 0 0 0 0 0 0 0 0 0 0.25 0"/>
<feBlend mode="normal" in2="BackgroundImageFix" result="effect1_dropShadow_4_110"/>
<feBlend mode="normal" in="SourceGraphic" in2="effect1_dropShadow_4_110" result="shape"/>
<feGaussianBlur stdDeviation="128.5" result="effect2_foregroundBlur_4_110"/>
</filter>
<filter id="filter1_f_4_110" x="-90.494" y="257.52" width="2253.99" height="255.826" filterUnits="userSpaceOnUse" color-interpolation-filters="sRGB">
<feFlood flood-opacity="0" result="BackgroundImageFix"/>
<feBlend mode="normal" in="SourceGraphic" in2="BackgroundImageFix" result="shape"/>
<feGaussianBlur stdDeviation="15" result="effect1_foregroundBlur_4_110"/>
</filter>
</defs>
</svg>
