<svg width="24" height="24" viewBox="0 0 24 24" fill="none" xmlns="http://www.w3.org/2000/svg">
<g id="cog">
<path id="Vector" d="M10.255 4.188C10.1567 4.42276 10.012 4.63527 9.82963 4.81286C9.64728 4.99045 9.43101 5.12946 9.19373 5.22159C8.95646 5.31371 8.70305 5.35707 8.44864 5.34907C8.19423 5.34106 7.94404 5.28186 7.71303 5.175C6.10303 4.432 4.43303 6.103 5.17503 7.713C5.62503 8.687 5.17803 9.843 4.18803 10.255C2.63703 10.901 2.63703 13.099 4.18803 13.745C4.42279 13.8434 4.63531 13.9881 4.81289 14.1704C4.99048 14.3527 5.12949 14.569 5.22162 14.8063C5.31375 15.0436 5.3571 15.297 5.3491 15.5514C5.34109 15.8058 5.28189 16.056 5.17503 16.287C4.43203 17.897 6.10303 19.567 7.71303 18.825C7.94407 18.7183 8.19423 18.6592 8.4486 18.6513C8.70297 18.6433 8.95634 18.6867 9.19357 18.7788C9.43081 18.8709 9.64707 19.0099 9.82943 19.1874C10.0118 19.3649 10.1565 19.5773 10.255 19.812C10.901 21.363 13.099 21.363 13.745 19.812C13.8434 19.5772 13.9881 19.3647 14.1704 19.1871C14.3528 19.0096 14.5691 18.8705 14.8063 18.7784C15.0436 18.6863 15.297 18.6429 15.5514 18.6509C15.8058 18.6589 16.056 18.7181 16.287 18.825C17.897 19.568 19.567 17.897 18.825 16.287C18.7182 16.056 18.659 15.8058 18.651 15.5514C18.643 15.297 18.6863 15.0436 18.7784 14.8063C18.8706 14.569 19.0096 14.3527 19.1872 14.1704C19.3648 13.9881 19.5773 13.8434 19.812 13.745C21.363 13.099 21.363 10.901 19.812 10.255C19.5774 10.1565 19.3649 10.0118 19.1874 9.8294C19.0099 9.64704 18.871 9.43078 18.7789 9.19354C18.6867 8.9563 18.6434 8.70294 18.6513 8.44857C18.6592 8.1942 18.7183 7.94404 18.825 7.713C19.568 6.103 17.897 4.433 16.287 5.175C15.314 5.625 14.157 5.178 13.745 4.188C13.099 2.637 10.901 2.637 10.255 4.188Z" stroke="#C1B9DF" stroke-width="2" stroke-linecap="round" stroke-linejoin="round"/>
<path id="Vector_2" d="M15 12C15 12.7956 14.6839 13.5587 14.1213 14.1213C13.5587 14.6839 12.7956 15 12 15C11.2044 15 10.4413 14.6839 9.87868 14.1213C9.31607 13.5587 9 12.7956 9 12C9 11.2044 9.31607 10.4413 9.87868 9.87868C10.4413 9.31607 11.2044 9 12 9C12.7956 9 13.5587 9.31607 14.1213 9.87868C14.6839 10.4413 15 11.2044 15 12Z" stroke="#C1B9DF" stroke-width="2" stroke-linecap="round" stroke-linejoin="round"/>
</g>
</svg>
