<svg width="26" height="23" viewBox="0 0 26 23" fill="none" xmlns="http://www.w3.org/2000/svg">
<path id="Vector" d="M18.02 3.76343L22.0573 7.8007C22.2274 7.97078 22.2274 8.24829 22.0573 8.41837L12.2819 18.1938L8.12825 18.6548C7.57324 18.7174 7.10327 18.2475 7.16593 17.6925L7.62695 13.5388L17.4023 3.76343C17.5724 3.59334 17.8499 3.59334 18.02 3.76343ZM25.271 2.73844L23.0868 0.554199C22.4064 -0.126139 21.3009 -0.126139 20.616 0.554199L19.0316 2.13867C18.8615 2.30876 18.8615 2.58626 19.0316 2.75635L23.0688 6.79362C23.2389 6.9637 23.5164 6.9637 23.6865 6.79362L25.271 5.20915C25.9513 4.52433 25.9513 3.41878 25.271 2.73844ZM17.1875 15.5351V20.0916H2.86458V5.76864H13.1502C13.2935 5.76864 13.4277 5.71045 13.5307 5.61198L15.321 3.82161C15.6612 3.48145 15.4195 2.90405 14.9406 2.90405H2.14844C0.962321 2.90405 0 3.86637 0 5.05249V20.8077C0 21.9938 0.962321 22.9561 2.14844 22.9561H17.9036C19.0898 22.9561 20.0521 21.9938 20.0521 20.8077V13.7447C20.0521 13.2658 19.4747 13.0286 19.1345 13.3643L17.3442 15.1546C17.2457 15.2576 17.1875 15.3918 17.1875 15.5351Z" fill="#F3F3F3"/>
</svg>
