<svg width="32" height="22" viewBox="0 0 32 22" fill="none" xmlns="http://www.w3.org/2000/svg">
<path id="Vector" d="M31.0612 9.83291C28.119 4.09235 22.2943 0.208344 15.625 0.208344C8.95559 0.208344 3.12931 4.09506 0.188772 9.83345C0.0646632 10.079 0 10.3502 0 10.6253C0 10.9004 0.0646632 11.1716 0.188772 11.4171C3.13094 17.1577 8.95559 21.0417 15.625 21.0417C22.2943 21.0417 28.1206 17.155 31.0612 11.4166C31.1853 11.1711 31.2499 10.8998 31.2499 10.6247C31.2499 10.3496 31.1853 10.0784 31.0612 9.83291ZM15.625 18.4375C14.0798 18.4375 12.5693 17.9793 11.2846 17.1209C9.99982 16.2624 8.99847 15.0423 8.40716 13.6147C7.81585 12.1872 7.66114 10.6163 7.96259 9.10087C8.26403 7.58539 9.0081 6.19334 10.1007 5.10074C11.1933 4.00814 12.5854 3.26407 14.1008 2.96263C15.6163 2.66118 17.1871 2.81589 18.6147 3.4072C20.0422 3.99851 21.2624 4.99986 22.1208 6.28462C22.9793 7.56938 23.4375 9.07984 23.4375 10.625C23.438 11.6511 23.2362 12.6672 22.8438 13.6153C22.4514 14.5634 21.8759 15.4248 21.1504 16.1504C20.4248 16.876 19.5634 17.4514 18.6153 17.8438C17.6672 18.2363 16.6511 18.438 15.625 18.4375ZM15.625 5.41668C15.1601 5.42317 14.6982 5.49234 14.2518 5.6223C14.6198 6.12234 14.7963 6.73769 14.7495 7.35675C14.7027 7.97581 14.4355 8.5576 13.9966 8.99659C13.5576 9.43559 12.9758 9.70272 12.3567 9.74955C11.7376 9.79639 11.1223 9.61981 10.6223 9.25185C10.3375 10.3009 10.3889 11.4128 10.7692 12.4311C11.1495 13.4494 11.8396 14.3228 12.7423 14.9284C13.645 15.5339 14.7148 15.8412 15.8013 15.8069C16.8877 15.7725 17.9361 15.3984 18.7987 14.737C19.6614 14.0757 20.295 13.1605 20.6102 12.1202C20.9255 11.08 20.9066 9.96701 20.5562 8.93804C20.2058 7.90906 19.5416 7.01587 18.657 6.38418C17.7724 5.7525 16.712 5.41412 15.625 5.41668Z" fill="#252232"/>
</svg>
