<svg width="33" height="26" viewBox="0 0 33 26" fill="none" xmlns="http://www.w3.org/2000/svg">
<path id="Following" d="M22.5517 3.90901C23.1816 3.67622 23.8585 3.59914 24.5246 3.68434C25.1907 3.76955 25.8264 4.0145 26.3775 4.39834C26.9285 4.78219 27.3787 5.29354 27.6895 5.88885C28.0003 6.48416 28.1626 7.14577 28.1626 7.81734C28.1626 8.48891 28.0003 9.15053 27.6895 9.74584C27.3787 10.3411 26.9285 10.8525 26.3775 11.2363C25.8264 11.6202 25.1907 11.8651 24.5246 11.9503C23.8585 12.0355 23.1816 11.9585 22.5517 11.7257M1.5 23.6507C2.65167 19.8057 5.61667 18.6507 12.3333 18.6507C19.05 18.6507 22.015 19.8057 23.1667 23.6507M24.8333 16.984C28.8383 17.1423 30.7167 18.0473 31.5 20.3173M18.1667 7.81734C18.1667 8.58339 18.0158 9.34193 17.7226 10.0497C17.4295 10.7574 16.9998 11.4005 16.4581 11.9421C15.9164 12.4838 15.2734 12.9135 14.5657 13.2066C13.8579 13.4998 13.0994 13.6507 12.3333 13.6507C11.5673 13.6507 10.8087 13.4998 10.101 13.2066C9.39328 12.9135 8.75022 12.4838 8.20854 11.9421C7.66687 11.4005 7.23719 10.7574 6.94404 10.0497C6.65088 9.34193 6.5 8.58339 6.5 7.81734C6.5 6.27025 7.11458 4.78652 8.20854 3.69255C9.30251 2.59859 10.7862 1.98401 12.3333 1.98401C13.8804 1.98401 15.3642 2.59859 16.4581 3.69255C17.5521 4.78652 18.1667 6.27025 18.1667 7.81734Z" stroke="#C1B9DF" stroke-width="3" stroke-linecap="round" stroke-linejoin="round"/>
</svg>
