<svg width="24" height="24" viewBox="0 0 24 24" fill="none" xmlns="http://www.w3.org/2000/svg">
<g id="logout">
<path id="Vector" d="M21 12H13M18 15L20.913 12.087C20.9244 12.0756 20.9335 12.062 20.9397 12.0471C20.9459 12.0322 20.9491 12.0162 20.9491 12C20.9491 11.9838 20.9459 11.9678 20.9397 11.9529C20.9335 11.938 20.9244 11.9244 20.913 11.913L18 9M16 5V4.5C16 4.10218 15.842 3.72064 15.5607 3.43934C15.2794 3.15804 14.8978 3 14.5 3H5C4.46957 3 3.96086 3.21071 3.58579 3.58579C3.21071 3.96086 3 4.46957 3 5V19C3 19.5304 3.21071 20.0391 3.58579 20.4142C3.96086 20.7893 4.46957 21 5 21H14.5C14.8978 21 15.2794 20.842 15.5607 20.5607C15.842 20.2794 16 19.8978 16 19.5V19" stroke="#503F8D" stroke-width="2" stroke-linecap="round" stroke-linejoin="round"/>
</g>
</svg>
