<svg width="22" height="22" viewBox="0 0 22 22" fill="none" xmlns="http://www.w3.org/2000/svg">
<path id="Vector" opacity="0.75" d="M9.3268 0.270972C4.18374 0.270972 0 4.45471 0 9.59777C0 14.7408 4.18374 18.9246 9.3268 18.9246C10.899 18.9246 12.4446 18.5515 13.7504 17.832C13.855 17.9579 13.9709 18.0738 14.0968 18.1784L16.7616 20.8432C17.0077 21.1201 17.3077 21.3438 17.6433 21.5005C17.979 21.6572 18.3431 21.7437 18.7133 21.7546C19.0836 21.7655 19.4522 21.7006 19.7964 21.5639C20.1407 21.4272 20.4534 21.2215 20.7153 20.9596C20.9772 20.6977 21.1828 20.385 21.3195 20.0407C21.4562 19.6965 21.5211 19.3279 21.5102 18.9577C21.4993 18.5874 21.4129 18.2233 21.2562 17.8877C21.0994 17.552 20.8758 17.252 20.5989 17.0059L17.9341 14.3411C17.8043 14.2113 17.6614 14.0952 17.5077 13.9947C18.2272 12.6889 18.6803 11.17 18.6803 9.57113C18.6803 4.42806 14.4965 0.244324 9.35345 0.244324L9.3268 0.270972ZM9.3268 2.93577C13.0309 2.93577 15.9888 5.8937 15.9888 9.59777C15.9888 11.3565 15.3493 12.9821 14.23 14.1812C14.2034 14.2079 14.1767 14.2345 14.1501 14.2612C14.0242 14.3658 13.9083 14.4817 13.8037 14.6076C12.6312 15.6735 11.0323 16.2864 9.30015 16.2864C5.59608 16.2864 2.63815 13.3285 2.63815 9.62442C2.63815 5.92035 5.59608 2.96242 9.30015 2.96242L9.3268 2.93577Z" fill="#503F8D"/>
</svg>
