<svg width="29" height="28" viewBox="0 0 29 28" fill="none" xmlns="http://www.w3.org/2000/svg">
<path id="Vector" d="M8.94444 11.7062H8.95833M14.5 11.7062H14.5139M20.0556 11.7062H20.0694M27 15.8729V7.53956C27 4.92012 27 3.61179 26.1861 2.7979C25.3722 1.98401 24.0639 1.98401 21.4444 1.98401H7.55556C4.93611 1.98401 3.62778 1.98401 2.81389 2.7979C2 3.61179 2 4.92012 2 7.53956V15.8729C2 18.4923 2 19.8007 2.81389 20.6146C3.62778 21.4285 4.93611 21.4285 7.55556 21.4285H8.25C8.43418 21.4285 8.61081 21.5016 8.74105 21.6319C8.87128 21.7621 8.94444 21.9387 8.94444 22.1229V25.8035C8.94444 26.2951 9.50139 26.5785 9.9 26.2896L16.0222 21.8368C16.3861 21.5715 16.8264 21.4285 17.2778 21.4285H21.4444C24.0639 21.4285 25.3722 21.4285 26.1861 20.6146C27 19.8007 27 18.4923 27 15.8729Z" stroke="#C1B9DF" stroke-width="3" stroke-linecap="round" stroke-linejoin="round"/>
</svg>
