<svg width="35" height="29" viewBox="0 0 35 29" fill="none" xmlns="http://www.w3.org/2000/svg">
<path id="Vector" d="M19.3484 3.94468L18.0578 1.33062C17.8445 0.876712 17.1773 0.860306 16.9422 1.33062L15.6516 3.94468L12.7914 4.35484C12.2828 4.4314 12.0641 5.06031 12.4414 5.43765L14.5195 7.46109L14.0273 10.3103C13.9508 10.8189 14.4758 11.2126 14.9461 10.9775L17.5109 9.62124L20.0594 10.9556C20.5297 11.1908 21.0602 10.797 20.9781 10.2884L20.4859 7.43921L22.5641 5.43765C22.9359 5.06577 22.7227 4.43687 22.2141 4.35484L19.3539 3.94468H19.3484ZM14 14.9861C13.032 14.9861 12.25 15.7681 12.25 16.7361V27.2361C12.25 28.2041 13.032 28.9861 14 28.9861H21C21.968 28.9861 22.75 28.2041 22.75 27.2361V16.7361C22.75 15.7681 21.968 14.9861 21 14.9861H14ZM1.75 18.4861C0.782031 18.4861 0 19.2681 0 20.2361V27.2361C0 28.2041 0.782031 28.9861 1.75 28.9861H8.75C9.71797 28.9861 10.5 28.2041 10.5 27.2361V20.2361C10.5 19.2681 9.71797 18.4861 8.75 18.4861H1.75ZM24.5 23.7361V27.2361C24.5 28.2041 25.282 28.9861 26.25 28.9861H33.25C34.218 28.9861 35 28.2041 35 27.2361V23.7361C35 22.7681 34.218 21.9861 33.25 21.9861H26.25C25.282 21.9861 24.5 22.7681 24.5 23.7361Z" fill="#C1B9DF"/>
</svg>
