<svg width="24" height="24" viewBox="0 0 24 24" fill="none" xmlns="http://www.w3.org/2000/svg">
<g id="user">
<path id="Vector" fill-rule="evenodd" clip-rule="evenodd" d="M5.99998 8C5.99998 6.4087 6.63212 4.88258 7.75734 3.75736C8.88255 2.63214 10.4087 2 12 2C13.5913 2 15.1174 2.63214 16.2426 3.75736C17.3678 4.88258 18 6.4087 18 8C18 9.5913 17.3678 11.1174 16.2426 12.2426C15.1174 13.3679 13.5913 14 12 14C10.4087 14 8.88255 13.3679 7.75734 12.2426C6.63212 11.1174 5.99998 9.5913 5.99998 8ZM5.42998 16.902C7.05698 16.223 9.22398 16 12 16C14.771 16 16.935 16.22 18.559 16.898C20.301 17.625 21.371 18.861 21.941 20.658C21.9901 20.8124 22.002 20.9762 21.9759 21.1361C21.9498 21.296 21.8863 21.4475 21.7906 21.5782C21.6949 21.709 21.5697 21.8153 21.4252 21.8886C21.2807 21.9619 21.121 22.0001 20.959 22H3.03498C2.34498 22 1.84698 21.33 2.05698 20.665C2.62498 18.868 3.69098 17.632 5.43098 16.903L5.42998 16.902Z" fill="#252232"/>
</g>
</svg>
