<svg width="29" height="29" viewBox="0 0 29 29" fill="none" xmlns="http://www.w3.org/2000/svg">
<path id="User Profile" d="M2 26.984C3.32917 22.7118 6.75 21.4285 14.5 21.4285C22.25 21.4285 25.6708 22.7118 27 26.984M21.4444 8.92845C21.4444 10.7702 20.7128 12.5366 19.4105 13.8389C18.1081 15.1413 16.3418 15.8729 14.5 15.8729C12.6582 15.8729 10.8919 15.1413 9.58954 13.8389C8.2872 12.5366 7.55556 10.7702 7.55556 8.92845C7.55556 7.08667 8.2872 5.32033 9.58954 4.01799C10.8919 2.71565 12.6582 1.98401 14.5 1.98401C16.3418 1.98401 18.1081 2.71565 19.4105 4.01799C20.7128 5.32033 21.4444 7.08667 21.4444 8.92845Z" stroke="#C1B9DF" stroke-width="3" stroke-linecap="square" stroke-linejoin="round"/>
</svg>
